<mxfile host="app.diagrams.net" modified="2024-03-23T02:05:54.704Z" agent="Mozilla/5.0 (Windows NT 10.0; Win64; x64) AppleWebKit/537.36 (KHTML, like Gecko) Chrome/122.0.0.0 Safari/537.36" version="24.0.8" etag="x5mJsM-vacw658M_kZmO" type="github">
  <diagram name="PÃ¡gina-1" id="ECFOvYIbF3KZ7Zb5GRKE">
    <mxGraphModel>
      <root>
        <mxCell id="0" />
        <mxCell id="1" parent="0" />
      </root>
    </mxGraphModel>
  </diagram>
</mxfile>
